<svg width="519" height="393" viewBox="0 0 519 393" fill="none" xmlns="http://www.w3.org/2000/svg">
<g filter="url(#filter0_d)">
<path d="M422.769 76.502H42.272C36.3105 76.502 31.4777 81.3321 31.4777 87.2904V335.292C31.4777 341.25 36.3105 346.08 42.272 346.08H422.769C428.73 346.08 433.563 341.25 433.563 335.292V87.2904C433.563 81.3321 428.73 76.502 422.769 76.502Z" fill="#7545FF"/>
<path d="M410.843 324.861H52.8696C50.1156 324.957 47.4352 323.961 45.413 322.09C43.3909 320.219 42.191 317.625 42.0752 314.873V99.3261C42.191 96.5744 43.3909 93.9801 45.413 92.109C47.4352 90.238 50.1156 89.242 52.8696 89.3384H410.843C413.597 89.242 416.277 90.238 418.299 92.109C420.322 93.9801 421.521 96.5744 421.637 99.3261V314.873C421.521 317.625 420.322 320.219 418.299 322.09C416.277 323.961 413.597 324.957 410.843 324.861Z" fill="white"/>
<path d="M438.304 367.143H26.7369C22.298 367.143 18.0409 365.381 14.9022 362.243C11.7634 359.106 10.0001 354.852 10.0001 350.415C9.99711 349.915 10.0935 349.419 10.2837 348.956C10.474 348.493 10.7542 348.073 11.1082 347.719C11.4622 347.365 11.8829 347.085 12.346 346.895C12.809 346.705 13.3053 346.608 13.8059 346.611H451.235C451.735 346.608 452.232 346.705 452.695 346.895C453.158 347.085 453.578 347.365 453.932 347.719C454.286 348.073 454.567 348.493 454.757 348.956C454.947 349.419 455.044 349.915 455.041 350.415C455.041 354.852 453.277 359.106 450.138 362.243C447 365.381 442.743 367.143 438.304 367.143Z" fill="#7545FF"/>
<path d="M120.37 332.665H344.693C346.464 332.665 348.162 333.368 349.414 334.62C350.666 335.871 351.37 337.568 351.37 339.338V346.612H113.693V339.338C113.693 337.568 114.396 335.871 115.648 334.62C116.901 333.368 118.599 332.665 120.37 332.665Z" fill="#CAB7FF"/>
</g>
<rect x="69.5681" y="230.463" width="16.3603" height="71.9853" rx="3" fill="#CAB7FF"/>
<rect x="99.6748" y="217.633" width="16.3603" height="85.0736" rx="3" fill="#CAB7FF"/>
<rect x="129.782" y="202.97" width="16.3603" height="100.343" rx="3" fill="#CAB7FF"/>
<rect x="159.888" y="170.895" width="17.451" height="131.973" rx="3" fill="#CAB7FF"/>
<rect x="191.086" y="158.065" width="17.451" height="145.061" rx="3" fill="#CAB7FF"/>
<rect x="222.613" y="146.151" width="17.4123" height="156.71" rx="3" fill="#CAB7FF"/>
<path d="M333.308 226.057L393.27 216.891C395.182 229.416 393.123 242.226 387.382 253.521C381.64 264.816 372.506 274.03 361.26 279.867C350.015 285.705 337.223 287.874 324.682 286.069C312.141 284.264 300.479 278.577 291.336 269.806C282.193 261.034 276.026 249.619 273.702 237.164C271.379 224.708 273.015 211.838 278.38 200.359C283.746 188.881 292.572 179.372 303.619 173.167C314.666 166.962 327.379 164.372 339.973 165.763L333.308 226.057Z" fill="#3C16A8"/>
<path d="M353.209 165.396L345.954 213.407L391.438 204.554C391.438 204.554 384.753 177.651 353.209 165.396Z" fill="#CAB7FF"/>
<g filter="url(#filter1_d)">
<rect x="302.343" y="5.93652" width="201.162" height="166.517" rx="15" fill="white"/>
</g>
<g clip-path="url(#clip0)">
<path d="M358.75 21.6704C358.75 21.215 358.884 20.7699 359.135 20.3913C359.387 20.0127 359.744 19.7177 360.162 19.5434C360.58 19.3692 361.039 19.3236 361.483 19.4124C361.927 19.5012 362.334 19.7205 362.654 20.0425C362.974 20.3644 363.191 20.7746 363.28 21.2212C363.368 21.6678 363.323 22.1307 363.149 22.5514C362.976 22.972 362.683 23.3316 362.307 23.5846C361.931 23.8375 361.489 23.9726 361.037 23.9726C360.43 23.9726 359.849 23.73 359.42 23.2983C358.991 22.8665 358.75 22.2809 358.75 21.6704Z" fill="#CAB7FF"/>
<path d="M377.691 49.5794L360.044 34.8106V21.6489H362.008V33.8766L378.943 48.0591L377.691 49.5794Z" fill="#CAB7FF"/>
<path d="M440.966 24.5155C440.97 24.054 440.838 23.6017 440.586 23.2163C440.334 22.8308 439.974 22.5296 439.551 22.351C439.129 22.1724 438.663 22.1246 438.213 22.2135C437.763 22.3025 437.35 22.5243 437.026 22.8506C436.702 23.1769 436.481 23.593 436.393 24.0458C436.305 24.4986 436.352 24.9676 436.529 25.3931C436.707 25.8187 437.006 26.1814 437.389 26.4351C437.772 26.6888 438.221 26.822 438.679 26.8177C439.286 26.8177 439.868 26.5751 440.296 26.1434C440.725 25.7116 440.966 25.126 440.966 24.5155Z" fill="#CAB7FF"/>
<path d="M429.662 52.2289L428.044 51.1212L437.687 36.9171V24.5156H439.65V37.5035L429.662 52.2289Z" fill="#CAB7FF"/>
<path d="M445.885 154.438C445.881 154.892 445.743 155.335 445.489 155.711C445.235 156.086 444.877 156.378 444.458 156.549C444.04 156.72 443.581 156.762 443.139 156.671C442.697 156.58 442.291 156.359 441.974 156.036C441.656 155.713 441.44 155.303 441.354 154.857C441.267 154.411 441.314 153.949 441.488 153.53C441.661 153.111 441.954 152.752 442.33 152.5C442.706 152.248 443.147 152.114 443.598 152.114C443.9 152.114 444.199 152.174 444.478 152.291C444.757 152.408 445.01 152.58 445.223 152.796C445.436 153.012 445.603 153.268 445.717 153.55C445.831 153.832 445.888 154.134 445.885 154.438Z" fill="#CAB7FF"/>
<path d="M444.569 154.438H442.627V142.188L425.692 128.028L426.944 126.507L444.569 141.276V154.438Z" fill="#CAB7FF"/>
<path d="M326.929 80.2901C326.929 79.8296 327.065 79.3794 327.32 78.9968C327.574 78.6142 327.936 78.3163 328.359 78.1411C328.782 77.9659 329.248 77.9211 329.696 78.0126C330.144 78.104 330.555 78.3275 330.877 78.6547C331.199 78.9819 331.418 79.398 331.504 79.8502C331.591 80.3024 331.542 80.7704 331.364 81.1946C331.186 81.6188 330.887 81.9803 330.504 82.233C330.122 82.4857 329.673 82.6184 329.216 82.614C328.608 82.6083 328.026 82.361 327.598 81.9258C327.169 81.4906 326.929 80.9027 326.929 80.2901Z" fill="#CAB7FF"/>
<path d="M355.385 92.4524L344.274 81.2889H328.202V79.3125H345.094L356.765 91.0624L355.385 92.4524Z" fill="#CAB7FF"/>
<path d="M358.254 158.108H356.312V139.387L384.056 129.939L384.681 131.807L358.254 140.798V158.108Z" fill="#CAB7FF"/>
<path d="M475.656 122.598H460.145L443.922 106.266L445.303 104.854L460.965 120.622H475.656V122.598Z" fill="#CAB7FF"/>
<path d="M445.95 79.0522L444.375 77.8576C444.979 77.0757 453.241 72.2976 460.059 68.4316H460.274H478.331V70.3863H460.857C455.399 73.3184 446.726 78.3354 445.95 79.0522Z" fill="#CAB7FF"/>
<path d="M475.462 69.4735C475.458 69.012 475.59 68.5597 475.842 68.1743C476.094 67.7888 476.454 67.4876 476.877 67.309C477.3 67.1304 477.766 67.0826 478.215 67.1715C478.665 67.2605 479.078 67.4823 479.403 67.8086C479.727 68.1349 479.947 68.551 480.035 69.0038C480.124 69.4566 480.076 69.9256 479.899 70.3512C479.721 70.7767 479.422 71.1394 479.039 71.3931C478.656 71.6468 478.207 71.78 477.749 71.7757C477.448 71.7757 477.151 71.7161 476.874 71.6004C476.596 71.4847 476.344 71.3152 476.132 71.1014C475.919 70.8876 475.751 70.6338 475.636 70.3545C475.521 70.0752 475.462 69.7758 475.462 69.4735Z" fill="#CAB7FF"/>
<path d="M473.175 121.621C473.175 121.165 473.309 120.72 473.561 120.342C473.812 119.963 474.169 119.668 474.587 119.494C475.005 119.319 475.465 119.274 475.908 119.363C476.352 119.451 476.759 119.671 477.079 119.993C477.399 120.315 477.617 120.725 477.705 121.171C477.793 121.618 477.748 122.081 477.575 122.502C477.402 122.922 477.109 123.282 476.733 123.535C476.356 123.788 475.914 123.923 475.462 123.923C474.856 123.923 474.274 123.68 473.845 123.248C473.416 122.817 473.175 122.231 473.175 121.621Z" fill="#CAB7FF"/>
<path d="M354.996 156.741C354.996 156.285 355.13 155.84 355.382 155.462C355.633 155.083 355.99 154.788 356.408 154.614C356.826 154.439 357.286 154.394 357.729 154.483C358.173 154.572 358.58 154.791 358.9 155.113C359.22 155.435 359.438 155.845 359.526 156.292C359.614 156.738 359.569 157.201 359.396 157.622C359.223 158.042 358.929 158.402 358.553 158.655C358.177 158.908 357.735 159.043 357.283 159.043C356.982 159.046 356.683 158.988 356.404 158.874C356.126 158.759 355.872 158.589 355.66 158.375C355.447 158.161 355.278 157.906 355.164 157.625C355.05 157.344 354.993 157.044 354.996 156.741Z" fill="#CAB7FF"/>
<path d="M400.473 46.1691C400.363 42.623 398.894 39.2573 396.374 36.7778C393.853 34.2983 390.477 32.8977 386.953 32.8696C383.429 32.8415 380.031 34.1881 377.472 36.6271C374.913 39.0661 373.391 42.408 373.226 45.9519C372.087 45.7436 370.932 45.6346 369.774 45.6261C366.375 45.6413 363.04 46.5544 360.102 48.2742C357.163 49.994 354.725 52.4602 353.03 55.4262C351.335 58.3923 350.444 61.7542 350.444 65.1759C350.445 68.5977 351.337 71.9594 353.033 74.9249C351.223 77.8426 350.266 81.2148 350.272 84.6549C350.261 84.7922 350.261 84.9302 350.272 85.0676C348.251 86.9736 346.687 89.3165 345.697 91.9197C344.707 94.5228 344.316 97.3183 344.555 100.095C344.794 102.873 345.656 105.559 347.076 107.952C348.496 110.345 350.437 112.382 352.753 113.91C352.597 114.902 352.518 115.904 352.515 116.907C352.518 121.611 354.307 126.136 357.516 129.556C360.724 132.976 365.109 135.032 369.774 135.303C370.666 139.035 372.888 142.307 376.018 144.498C379.148 146.689 382.969 147.646 386.754 147.188C390.539 146.73 394.026 144.888 396.551 142.012C399.076 139.137 400.464 135.428 400.451 131.589V46.1691H400.473Z" fill="#3C16A8"/>
<path d="M404.162 46.1691C404.272 42.623 405.741 39.2573 408.261 36.7778C410.782 34.2983 414.158 32.8977 417.682 32.8696C421.206 32.8415 424.604 34.1881 427.163 36.6271C429.722 39.0661 431.244 42.408 431.409 45.9519C432.556 45.7436 433.718 45.6346 434.883 45.6261C438.282 45.6413 441.617 46.5544 444.555 48.2742C447.494 49.994 449.932 52.4602 451.627 55.4262C453.321 58.3923 454.213 61.7542 454.213 65.1759C454.212 68.5977 453.319 71.9594 451.624 74.9249C453.418 77.8487 454.367 81.2182 454.364 84.6549V85.0676C456.383 86.9752 457.946 89.3194 458.934 91.9234C459.923 94.5275 460.311 97.3235 460.07 100.101C459.829 102.878 458.965 105.564 457.543 107.956C456.121 110.348 454.178 112.384 451.861 113.91C452.016 114.902 452.096 115.904 452.098 116.907C452.1 121.613 450.313 126.141 447.104 129.562C443.894 132.983 439.506 135.037 434.84 135.303C433.929 139.02 431.7 142.273 428.572 144.449C425.444 146.625 421.633 147.575 417.858 147.118C414.083 146.661 410.604 144.83 408.077 141.97C405.551 139.109 404.15 135.417 404.141 131.589V46.1691H404.162Z" fill="#3C16A8"/>
<path d="M384.919 148.205C381.332 148.214 377.84 147.047 374.971 144.88C372.102 142.713 370.013 139.664 369.019 136.194C364.241 135.74 359.804 133.506 356.575 129.931C353.347 126.356 351.561 121.696 351.566 116.865C351.563 116.022 351.614 115.181 351.717 114.345C349.4 112.712 347.469 110.584 346.061 108.114C344.652 105.644 343.802 102.893 343.569 100.055C343.336 97.2163 343.727 94.3614 344.714 91.6925C345.701 89.0236 347.26 86.6062 349.279 84.6121C349.29 81.2086 350.19 77.8679 351.89 74.9255C350.093 71.6182 349.242 67.8748 349.429 64.1101C349.616 60.3454 350.835 56.7063 352.95 53.5961C355.065 50.486 357.995 48.0261 361.414 46.4892C364.833 44.9522 368.607 44.3981 372.32 44.8883C372.672 41.1283 374.449 37.649 377.28 35.1718C380.112 32.6945 383.782 31.4092 387.53 31.5824C391.277 31.7555 394.815 33.3738 397.409 36.1017C400.004 38.8297 401.456 42.4581 401.465 46.2349V131.547C401.46 135.963 399.714 140.197 396.613 143.32C393.511 146.442 389.305 148.199 384.919 148.205ZM369.774 46.691C366.547 46.6876 363.375 47.5409 360.58 49.1648C357.784 50.7886 355.463 53.1257 353.851 55.9404C352.239 58.7551 351.392 61.948 351.396 65.1972C351.4 68.4464 352.255 71.6371 353.874 74.4477L354.176 74.969L353.853 75.4685C352.143 78.2313 351.239 81.4221 351.242 84.6773C351.242 84.6773 351.242 84.8293 351.242 84.8945V85.5026L350.94 85.8067C349.018 87.6054 347.528 89.8218 346.585 92.2874C345.641 94.7529 345.269 97.4026 345.495 100.035C345.722 102.667 346.542 105.213 347.893 107.478C349.244 109.743 351.091 111.669 353.292 113.107L353.831 113.455V114.085C353.682 115.004 353.602 115.933 353.594 116.865C353.588 121.315 355.278 125.599 358.317 128.832C361.355 132.065 365.51 134.001 369.925 134.24H370.659L370.831 134.956C371.672 138.45 373.756 141.511 376.688 143.561C379.621 145.61 383.198 146.506 386.743 146.077C390.287 145.649 393.553 143.927 395.92 141.237C398.288 138.546 399.593 135.076 399.588 131.481V46.1698C399.614 42.7943 398.307 39.5468 395.954 37.1416C393.602 34.7365 390.396 33.3707 387.044 33.3448C383.691 33.3189 380.465 34.6349 378.076 37.0034C375.687 39.3719 374.33 42.5988 374.304 45.9743V47.1254L373.01 46.9299C371.941 46.7467 370.858 46.6667 369.774 46.691Z" fill="#CAB7FF"/>
<path d="M382.977 80.6808L381.639 79.2691C384.006 77.2679 385.833 74.6983 386.951 71.7979C388.07 68.8975 388.444 65.76 388.039 62.6755C387.634 59.591 386.463 56.659 384.635 54.1508C382.806 51.6426 380.379 49.6391 377.577 48.3256C374.775 47.012 371.69 46.4309 368.606 46.6359C365.522 46.8408 362.54 47.8253 359.934 49.4983C357.328 51.1712 355.184 53.4786 353.698 56.2071C352.213 58.9356 351.435 61.997 351.437 65.1084H349.473C349.472 61.6713 350.33 58.2891 351.967 55.2734C353.605 52.2577 355.971 49.7054 358.846 47.8518C361.721 45.9982 365.013 44.9028 368.419 44.6666C371.825 44.4304 375.235 45.0609 378.336 46.5001C381.436 47.9393 384.127 50.1408 386.16 52.9019C388.193 55.6631 389.503 58.8949 389.97 62.2997C390.437 65.7045 390.045 69.1728 388.83 72.3851C387.615 75.5973 385.617 78.4502 383.02 80.6808H382.977Z" fill="#CAB7FF"/>
<path d="M385.437 54.6836L384.315 53.0764C385.848 52.0176 387.123 50.6237 388.046 48.9991C388.968 47.3744 389.514 45.5608 389.643 43.6938L391.585 43.8024C391.446 45.9666 390.82 48.0706 389.755 49.9556C388.69 51.8407 387.213 53.4573 385.437 54.6836Z" fill="#CAB7FF"/>
<path d="M355.751 87.4573C353.545 87.4699 351.353 87.0875 349.279 86.3279L349.97 84.4818C352.224 85.2531 354.608 85.5642 356.983 85.3969C359.358 85.2296 361.675 84.5872 363.801 83.5073C365.926 82.4273 367.816 80.9316 369.36 79.1075C370.905 77.2834 372.072 75.1676 372.794 72.8839C373.209 71.3477 373.419 69.7628 373.42 68.1709H375.383C375.4 71.7358 374.409 75.232 372.525 78.2509C370.642 81.2699 367.944 83.6871 364.747 85.2202C361.962 86.6594 358.882 87.4253 355.751 87.4573Z" fill="#CAB7FF"/>
<path d="M382.826 95.4495C382.244 95.4927 381.66 95.4927 381.079 95.4495C377.387 94.9831 374.029 93.0606 371.744 90.1043C369.459 87.1479 368.432 83.3993 368.89 79.6816L370.831 79.9423C370.511 82.5279 371.025 85.1486 372.296 87.4183C373.567 89.6881 375.528 91.4869 377.891 92.5499C380.254 93.6129 382.894 93.8838 385.421 93.3227C387.949 92.7616 390.23 91.3983 391.93 89.4334L393.397 90.7365C392.067 92.2313 390.437 93.4244 388.615 94.237C386.792 95.0495 384.819 95.4628 382.826 95.4495Z" fill="#CAB7FF"/>
<path d="M398.898 140.777L397.194 139.8C399.037 136.559 399.793 132.807 399.351 129.099C398.91 125.391 397.293 121.925 394.742 119.215C392.19 116.505 388.839 114.694 385.185 114.052C381.531 113.41 377.769 113.969 374.456 115.648L373.571 113.867C377.262 112.028 381.442 111.427 385.497 112.155C389.553 112.882 393.269 114.899 396.102 117.909C398.936 120.919 400.736 124.764 401.239 128.88C401.742 132.995 400.922 137.165 398.898 140.777Z" fill="#CAB7FF"/>
<path d="M368.803 135.347C368.46 132.117 369.385 128.881 371.381 126.328C373.376 123.776 376.283 122.11 379.482 121.686L379.676 123.641C377.008 124.03 374.596 125.449 372.949 127.597C371.302 129.746 370.55 132.455 370.853 135.152L368.803 135.347Z" fill="#CAB7FF"/>
<path d="M353.594 116.865H351.652C351.658 111.734 353.681 106.814 357.278 103.18C360.876 99.5455 365.756 97.4927 370.853 97.4697V99.4462C368.583 99.4461 366.335 99.897 364.238 100.773C362.141 101.649 360.237 102.933 358.634 104.551C357.03 106.169 355.76 108.089 354.895 110.202C354.031 112.315 353.588 114.579 353.594 116.865Z" fill="#CAB7FF"/>
<path d="M385.005 112.738H383.042C383.047 109.785 384.215 106.954 386.289 104.866C388.364 102.778 391.175 101.602 394.109 101.596V103.573C391.696 103.578 389.384 104.546 387.677 106.263C385.971 107.981 385.01 110.309 385.005 112.738Z" fill="#CAB7FF"/>
<path d="M367.509 61.5032L365.61 61.0037C365.923 59.8385 366.003 58.6226 365.846 57.4261C365.689 56.2296 365.299 55.0762 364.697 54.0324C364.095 52.9885 363.294 52.0749 362.34 51.3442C361.386 50.6135 360.298 50.0802 359.138 49.775L359.656 47.8638C362.488 48.6325 364.901 50.4993 366.369 53.0556C367.837 55.6118 368.239 58.6493 367.487 61.5032H367.509Z" fill="#CAB7FF"/>
<path d="M387.529 147.922L386.148 146.597C388.115 144.611 389.219 141.92 389.219 139.115C389.219 136.31 388.115 133.62 386.148 131.633L387.529 130.243C388.688 131.407 389.608 132.79 390.235 134.313C390.863 135.835 391.186 137.467 391.186 139.115C391.186 140.764 390.863 142.396 390.235 143.918C389.608 145.441 388.688 146.823 387.529 147.987V147.922Z" fill="#CAB7FF"/>
<path d="M392.901 43.7587C392.901 43.3034 392.767 42.8583 392.515 42.4797C392.264 42.1011 391.907 41.806 391.489 41.6318C391.071 41.4575 390.611 41.4119 390.168 41.5008C389.724 41.5896 389.317 41.8089 388.997 42.1308C388.677 42.4528 388.459 42.863 388.371 43.3096C388.283 43.7562 388.328 44.2191 388.501 44.6398C388.674 45.0604 388.967 45.42 389.343 45.673C389.72 45.9259 390.162 46.0609 390.614 46.0609C390.915 46.0638 391.214 46.0063 391.492 45.8916C391.771 45.7769 392.024 45.6075 392.237 45.3931C392.45 45.1788 392.619 44.9238 392.733 44.6432C392.846 44.3626 392.904 44.0619 392.901 43.7587Z" fill="#CAB7FF"/>
<path d="M368.544 61.5246C368.544 61.065 368.409 60.6157 368.155 60.2335C367.902 59.8513 367.541 59.5535 367.119 59.3776C366.697 59.2017 366.233 59.1557 365.786 59.2453C365.338 59.335 364.926 59.5563 364.604 59.8813C364.281 60.2063 364.061 60.6204 363.972 61.0712C363.883 61.522 363.928 61.9893 364.103 62.4139C364.278 62.8386 364.574 63.2015 364.953 63.4569C365.333 63.7122 365.779 63.8485 366.236 63.8485C366.848 63.8485 367.435 63.6037 367.868 63.1679C368.301 62.732 368.544 62.1409 368.544 61.5246Z" fill="#CAB7FF"/>
<path d="M384.012 80.2901C384.008 79.8395 383.872 79.4001 383.622 79.0265C383.372 78.6528 383.018 78.3613 382.605 78.1881C382.192 78.0149 381.737 77.9676 381.297 78.052C380.858 78.1365 380.452 78.349 380.131 78.6632C379.81 78.9774 379.588 79.3795 379.492 79.8196C379.396 80.2598 379.431 80.7186 379.591 81.1393C379.752 81.5599 380.031 81.9239 380.395 82.186C380.76 82.4481 381.192 82.597 381.639 82.614C381.949 82.6258 382.257 82.5742 382.546 82.4624C382.835 82.3506 383.098 82.181 383.32 81.9637C383.542 81.7464 383.718 81.486 383.837 81.1983C383.956 80.9107 384.016 80.6017 384.012 80.2901Z" fill="#CAB7FF"/>
<path d="M394.734 89.8461C394.734 89.3916 394.601 88.9474 394.351 88.5693C394.1 88.1912 393.744 87.8961 393.328 87.7212C392.911 87.5464 392.452 87.4995 392.009 87.5866C391.566 87.6737 391.159 87.8908 390.838 88.2106C390.518 88.5304 390.298 88.9386 390.207 89.3837C390.117 89.8289 390.159 90.2911 390.329 90.7121C390.499 91.1331 390.788 91.4942 391.162 91.7497C391.535 92.0053 391.975 92.144 392.426 92.1483C392.729 92.1541 393.03 92.0987 393.311 91.9853C393.593 91.8719 393.848 91.7029 394.064 91.4883C394.279 91.2736 394.449 91.0177 394.564 90.7356C394.68 90.4535 394.737 90.151 394.734 89.8461Z" fill="#CAB7FF"/>
<path d="M376.699 68.1707C376.678 67.7206 376.526 67.2866 376.262 66.9226C375.999 66.5585 375.635 66.2804 375.215 66.1227C374.796 65.965 374.34 65.9346 373.904 66.0353C373.468 66.136 373.07 66.3634 372.761 66.6893C372.452 67.0152 372.245 67.4252 372.165 67.8686C372.085 68.3119 372.136 68.7691 372.312 69.1835C372.488 69.5979 372.781 69.9512 373.154 70.1997C373.527 70.4482 373.965 70.5809 374.412 70.5814C374.721 70.5788 375.026 70.5138 375.309 70.3903C375.593 70.2668 375.849 70.0874 376.062 69.8626C376.275 69.6378 376.441 69.3722 376.551 69.0816C376.66 68.791 376.711 68.4812 376.699 68.1707Z" fill="#CAB7FF"/>
<path d="M373.118 98.4469C373.114 97.9916 372.975 97.5478 372.72 97.1716C372.466 96.7954 372.106 96.5038 371.686 96.3335C371.267 96.1633 370.807 96.122 370.364 96.2151C369.921 96.3081 369.516 96.5312 369.199 96.8562C368.882 97.1812 368.668 97.5935 368.584 98.0409C368.5 98.4883 368.55 98.9507 368.727 99.3697C368.904 99.7887 369.2 100.145 369.579 100.395C369.957 100.644 370.4 100.775 370.853 100.771C371.457 100.759 372.034 100.51 372.457 100.075C372.881 99.6404 373.118 99.0558 373.118 98.4469Z" fill="#CAB7FF"/>
<path d="M374.52 116.951C375.783 116.951 376.807 115.92 376.807 114.649C376.807 113.377 375.783 112.347 374.52 112.347C373.257 112.347 372.233 113.377 372.233 114.649C372.233 115.92 373.257 116.951 374.52 116.951Z" fill="#CAB7FF"/>
<path d="M379.353 124.965C380.616 124.965 381.639 123.935 381.639 122.663C381.639 121.392 380.616 120.361 379.353 120.361C378.09 120.361 377.066 121.392 377.066 122.663C377.066 123.935 378.09 124.965 379.353 124.965Z" fill="#CAB7FF"/>
<path d="M389.535 131.264C389.535 130.809 389.401 130.364 389.15 129.985C388.899 129.606 388.541 129.311 388.124 129.137C387.706 128.963 387.246 128.917 386.802 129.006C386.359 129.095 385.951 129.314 385.631 129.636C385.312 129.958 385.094 130.368 385.006 130.815C384.917 131.262 384.963 131.724 385.136 132.145C385.309 132.566 385.602 132.925 385.978 133.178C386.354 133.431 386.796 133.566 387.248 133.566C387.855 133.566 388.437 133.324 388.865 132.892C389.294 132.46 389.535 131.875 389.535 131.264Z" fill="#CAB7FF"/>
<path d="M395.986 102.595C395.99 102.134 395.858 101.681 395.606 101.296C395.354 100.91 394.993 100.609 394.571 100.431C394.148 100.252 393.682 100.204 393.232 100.293C392.783 100.382 392.369 100.604 392.045 100.93C391.721 101.256 391.501 101.673 391.412 102.125C391.324 102.578 391.372 103.047 391.549 103.473C391.726 103.898 392.026 104.261 392.408 104.515C392.791 104.768 393.241 104.902 393.699 104.897C394.304 104.892 394.882 104.647 395.31 104.217C395.737 103.786 395.98 103.204 395.986 102.595Z" fill="#CAB7FF"/>
<path d="M419.738 148.205C415.355 148.193 411.155 146.434 408.058 143.312C404.961 140.189 403.218 135.959 403.213 131.546V46.1695C403.149 42.3504 404.567 38.6568 407.165 35.8728C409.762 33.0887 413.335 31.4334 417.125 31.2581C420.915 31.0829 424.624 32.4016 427.464 34.9342C430.304 37.4668 432.052 41.014 432.337 44.8229C433.188 44.7117 434.046 44.6537 434.904 44.6491C438.44 44.632 441.919 45.5439 444.997 47.2947C448.076 49.0454 450.647 51.5745 452.458 54.632C454.268 57.6895 455.255 61.1697 455.32 64.7287C455.386 68.2876 454.528 71.8022 452.832 74.9252C454.541 77.8871 455.441 81.2515 455.442 84.677C457.262 86.4902 458.708 88.6479 459.697 91.0261C460.685 93.4042 461.197 95.9557 461.202 98.5336C461.176 101.653 460.401 104.72 458.944 107.473C457.486 110.226 455.389 112.584 452.832 114.345C452.942 115.18 453 116.022 453.004 116.864C453.004 121.698 451.213 126.358 447.981 129.932C444.75 133.507 440.31 135.74 435.53 136.194C434.544 139.647 432.472 142.685 429.624 144.851C426.776 147.017 423.307 148.194 419.738 148.205ZM417.796 33.4422C414.441 33.4422 411.224 34.7824 408.849 37.1686C406.475 39.5548 405.138 42.792 405.133 46.1695V131.546C405.15 135.13 406.467 138.585 408.836 141.26C411.206 143.935 414.464 145.647 417.999 146.074C421.533 146.5 425.101 145.613 428.031 143.577C430.962 141.542 433.053 138.5 433.912 135.021L434.084 134.305H434.796C439.211 134.065 443.366 132.13 446.405 128.897C449.443 125.664 451.134 121.38 451.127 116.93C451.126 115.955 451.046 114.981 450.89 114.019V113.389L451.429 113.042C453.617 111.595 455.449 109.666 456.787 107.401C458.125 105.136 458.934 102.594 459.152 99.9684C459.371 97.3423 458.993 94.7006 458.047 92.2433C457.101 89.786 455.613 87.5774 453.695 85.7847L453.371 85.4806V84.6553C453.375 81.4001 452.47 78.2093 450.761 75.4465L450.48 74.9252L450.761 74.404C452.393 71.5904 453.25 68.3887 453.241 65.13C453.224 60.2374 451.283 55.5507 447.843 52.0952C444.402 48.6396 439.742 46.6964 434.882 46.6907C433.775 46.6841 432.67 46.786 431.582 46.9948L430.438 47.1902V46.0392C430.393 42.6899 429.043 39.4926 426.678 37.1362C424.313 34.7799 421.124 33.4533 417.796 33.4422Z" fill="#CAB7FF"/>
<path d="M421.68 80.6808C419.089 78.4515 417.096 75.6018 415.886 72.3941C414.675 69.1864 414.285 65.7236 414.752 62.3246C415.219 58.9255 416.528 55.6992 418.558 52.9428C420.588 50.1863 423.274 47.9881 426.369 46.5505C429.464 45.1129 432.868 44.4821 436.269 44.7161C439.669 44.9501 442.957 46.0414 445.828 47.8896C448.7 49.7378 451.064 52.2836 452.703 55.2925C454.341 58.3014 455.202 61.677 455.205 65.1084H453.242C453.258 61.9934 452.492 58.9248 451.016 56.187C449.54 53.4492 447.402 51.1308 444.799 49.4467C442.196 47.7625 439.213 46.7672 436.126 46.5528C433.039 46.3385 429.949 46.9121 427.141 48.2206C424.333 49.529 421.898 51.5299 420.063 54.0378C418.228 56.5457 417.051 59.4794 416.642 62.5671C416.233 65.6548 416.605 68.7964 417.723 71.7009C418.841 74.6054 420.67 77.1786 423.039 79.1822L421.68 80.6808Z" fill="#CAB7FF"/>
<path d="M419.22 54.6834C417.443 53.4605 415.965 51.848 414.896 49.967C413.828 48.0861 413.197 45.9858 413.05 43.8239L415.013 43.7153C415.134 45.582 415.674 47.3967 416.593 49.0222C417.513 50.6477 418.787 52.0414 420.321 53.0979L419.22 54.6834Z" fill="#CAB7FF"/>
<path d="M448.97 87.4565C445.815 87.4583 442.704 86.7144 439.888 85.2846C436.691 83.7515 433.993 81.3343 432.11 78.3154C430.226 75.2964 429.235 71.8003 429.252 68.2354H431.258C431.256 69.829 431.473 71.4152 431.905 72.9483C432.633 75.2179 433.8 77.3194 435.341 79.1309C436.882 80.9424 438.764 82.4277 440.88 83.5006C442.995 84.5736 445.301 85.2128 447.664 85.3811C450.027 85.5494 452.399 85.2434 454.644 84.4811L455.313 86.3272C453.28 87.0735 451.133 87.4557 448.97 87.4565Z" fill="#CAB7FF"/>
<path d="M421.809 95.4497C419.808 95.448 417.83 95.0171 416.008 94.1857C414.185 93.3544 412.559 92.1416 411.238 90.6282L412.727 89.325C414.027 90.824 415.673 91.9785 417.52 92.6867C419.367 93.3949 421.358 93.6352 423.319 93.3864C424.892 93.1904 426.411 92.6842 427.789 91.8969C429.167 91.1095 430.378 90.0564 431.352 88.7977C432.325 87.5391 433.043 86.0996 433.464 84.5615C433.885 83.0234 434 81.4169 433.804 79.8339L435.746 79.5732C435.975 81.4145 435.842 83.2833 435.353 85.0727C434.865 86.8621 434.031 88.5369 432.898 90.0014C431.766 91.4659 430.359 92.6913 428.756 93.6076C427.153 94.5238 425.386 95.1129 423.557 95.3411C422.978 95.4205 422.394 95.4568 421.809 95.4497Z" fill="#CAB7FF"/>
<path d="M405.672 140.777C403.649 137.158 402.832 132.982 403.341 128.861C403.849 124.741 405.656 120.893 408.497 117.882C411.338 114.872 415.062 112.857 419.124 112.135C423.186 111.412 427.37 112.019 431.064 113.867L430.201 115.648C426.885 113.935 423.108 113.348 419.433 113.975C415.759 114.603 412.385 116.411 409.816 119.129C407.247 121.847 405.621 125.33 405.181 129.056C404.741 132.782 405.511 136.551 407.376 139.8L405.672 140.777Z" fill="#CAB7FF"/>
<path d="M435.832 135.347L433.89 135.152C434.185 132.443 433.42 129.725 431.756 127.576C430.092 125.426 427.661 124.015 424.98 123.641L425.196 121.686C428.387 122.12 431.284 123.791 433.27 126.342C435.256 128.893 436.175 132.124 435.832 135.347Z" fill="#CAB7FF"/>
<path d="M453.091 116.865H451.127C451.127 112.257 449.309 107.837 446.072 104.579C442.836 101.32 438.446 99.4896 433.869 99.4896V97.5132C438.951 97.5641 443.811 99.6193 447.405 103.237C450.999 106.856 453.04 111.748 453.091 116.865Z" fill="#CAB7FF"/>
<path d="M421.593 112.738H419.63C419.63 110.307 418.671 107.976 416.964 106.257C415.256 104.538 412.941 103.573 410.526 103.573V101.596C413.461 101.596 416.276 102.77 418.352 104.86C420.427 106.949 421.593 109.783 421.593 112.738Z" fill="#CAB7FF"/>
<path d="M437.148 61.5032C436.77 60.0899 436.672 58.6154 436.862 57.1642C437.051 55.713 437.523 54.3137 438.25 53.0466C438.978 51.7794 439.947 50.6693 441.101 49.7799C442.256 48.8905 443.574 48.2394 444.979 47.8638L445.475 49.775C444.315 50.0802 443.227 50.6135 442.273 51.3442C441.319 52.0749 440.518 52.9885 439.916 54.0324C439.314 55.0762 438.924 56.2296 438.767 57.4261C438.61 58.6226 438.691 59.8385 439.003 61.0037L437.148 61.5032Z" fill="#CAB7FF"/>
<path d="M417.106 147.922C415.947 146.758 415.027 145.375 414.4 143.853C413.772 142.33 413.449 140.698 413.449 139.05C413.449 137.402 413.772 135.77 414.4 134.247C415.027 132.725 415.947 131.342 417.106 130.178L418.487 131.568C416.52 133.554 415.416 136.245 415.416 139.05C415.416 141.855 416.52 144.545 418.487 146.532L417.106 147.922Z" fill="#CAB7FF"/>
<path d="M411.842 43.7585C411.843 43.2977 411.981 42.8478 412.238 42.4669C412.496 42.086 412.861 41.7917 413.286 41.6219C413.712 41.4522 414.178 41.4148 414.625 41.5147C415.071 41.6147 415.478 41.8472 415.792 42.1823C416.106 42.5175 416.313 42.9398 416.386 43.3946C416.459 43.8494 416.395 44.3158 416.202 44.7335C416.009 45.1512 415.696 45.501 415.303 45.7376C414.91 45.9742 414.456 46.0867 413.999 46.0607C413.414 46.0326 412.862 45.777 412.459 45.3477C412.057 44.9183 411.836 44.3487 411.842 43.7585Z" fill="#CAB7FF"/>
<path d="M436.112 61.5251C436.116 61.0707 436.254 60.6278 436.508 60.2521C436.762 59.8763 437.12 59.5846 437.539 59.4137C437.957 59.2428 438.416 59.2003 438.858 59.2915C439.3 59.3828 439.706 59.6038 440.023 59.9266C440.341 60.2494 440.557 60.6596 440.643 61.1056C440.73 61.5516 440.683 62.0134 440.509 62.4328C440.336 62.8522 440.043 63.2105 439.667 63.4625C439.292 63.7145 438.85 63.849 438.399 63.849C438.097 63.849 437.798 63.7888 437.519 63.6717C437.24 63.5547 436.987 63.3832 436.774 63.1671C436.562 62.951 436.394 62.6946 436.28 62.4128C436.166 62.131 436.109 61.8293 436.112 61.5251Z" fill="#CAB7FF"/>
<path d="M420.622 80.2901C420.622 79.8296 420.758 79.3794 421.013 78.9968C421.268 78.6142 421.629 78.3163 422.052 78.1411C422.475 77.9659 422.941 77.9211 423.389 78.0126C423.837 78.104 424.249 78.3275 424.571 78.6547C424.893 78.9819 425.111 79.398 425.197 79.8502C425.284 80.3024 425.235 80.7704 425.057 81.1946C424.879 81.6188 424.58 81.9803 424.197 82.233C423.815 82.4857 423.367 82.6184 422.909 82.614C422.301 82.6083 421.719 82.361 421.291 81.9258C420.863 81.4906 420.622 80.9027 420.622 80.2901Z" fill="#CAB7FF"/>
<path d="M409.9 89.8461C409.9 89.3908 410.035 88.9457 410.286 88.5671C410.537 88.1885 410.894 87.8934 411.312 87.7192C411.73 87.5449 412.19 87.4994 412.633 87.5882C413.077 87.677 413.484 87.8963 413.804 88.2182C414.124 88.5402 414.342 88.9504 414.43 89.397C414.518 89.8436 414.473 90.3065 414.3 90.7272C414.127 91.1478 413.834 91.5074 413.458 91.7604C413.082 92.0133 412.64 92.1483 412.187 92.1483C411.886 92.1512 411.587 92.0937 411.309 91.979C411.03 91.8643 410.777 91.6949 410.564 91.4805C410.351 91.2662 410.183 91.0112 410.069 90.7306C409.955 90.45 409.898 90.1493 409.9 89.8461Z" fill="#CAB7FF"/>
<path d="M427.936 68.171C427.953 67.7146 428.103 67.2733 428.368 66.9023C428.633 66.5313 429 66.247 429.424 66.0851C429.848 65.9231 430.311 65.8906 430.753 65.9916C431.196 66.0926 431.599 66.3227 431.912 66.653C432.225 66.9834 432.435 67.3994 432.515 67.849C432.595 68.2987 432.541 68.762 432.361 69.1812C432.181 69.6004 431.882 69.9568 431.502 70.2059C431.121 70.4551 430.676 70.5858 430.223 70.5818C429.914 70.5792 429.609 70.5142 429.326 70.3907C429.042 70.2672 428.786 70.0878 428.573 69.863C428.36 69.6382 428.194 69.3726 428.084 69.082C427.975 68.7914 427.924 68.4816 427.936 68.171Z" fill="#CAB7FF"/>
<path d="M431.517 98.447C431.517 97.9873 431.652 97.538 431.906 97.1559C432.16 96.7737 432.52 96.4758 432.942 96.2999C433.364 96.124 433.828 96.078 434.276 96.1677C434.724 96.2574 435.135 96.4787 435.458 96.8037C435.781 97.1287 436 97.5428 436.089 97.9936C436.179 98.4444 436.133 98.9116 435.958 99.3363C435.783 99.7609 435.487 100.124 435.108 100.379C434.728 100.635 434.282 100.771 433.825 100.771C433.213 100.771 432.626 100.526 432.193 100.09C431.76 99.6544 431.517 99.0633 431.517 98.447Z" fill="#CAB7FF"/>
<path d="M427.828 114.649C427.828 114.194 427.962 113.748 428.214 113.37C428.465 112.991 428.822 112.696 429.24 112.522C429.658 112.348 430.117 112.302 430.561 112.391C431.005 112.48 431.412 112.699 431.732 113.021C432.052 113.343 432.269 113.753 432.358 114.2C432.446 114.646 432.401 115.109 432.228 115.53C432.055 115.951 431.761 116.31 431.385 116.563C431.009 116.816 430.567 116.951 430.115 116.951C429.508 116.951 428.927 116.709 428.498 116.277C428.069 115.845 427.828 115.259 427.828 114.649Z" fill="#CAB7FF"/>
<path d="M425.282 124.965C426.545 124.965 427.569 123.935 427.569 122.663C427.569 121.392 426.545 120.361 425.282 120.361C424.019 120.361 422.996 121.392 422.996 122.663C422.996 123.935 424.019 124.965 425.282 124.965Z" fill="#CAB7FF"/>
<path d="M415.1 131.264C415.095 130.804 415.227 130.352 415.478 129.967C415.729 129.582 416.088 129.281 416.51 129.102C416.931 128.922 417.396 128.873 417.845 128.96C418.294 129.048 418.708 129.267 419.033 129.591C419.358 129.916 419.58 130.33 419.67 130.781C419.761 131.232 419.717 131.701 419.543 132.127C419.369 132.553 419.073 132.917 418.693 133.173C418.313 133.429 417.866 133.566 417.408 133.566C417.106 133.569 416.806 133.512 416.526 133.397C416.246 133.283 415.992 133.114 415.777 132.9C415.562 132.686 415.392 132.431 415.276 132.15C415.16 131.869 415.1 131.568 415.1 131.264Z" fill="#CAB7FF"/>
<path d="M408.649 102.595C408.645 102.135 408.777 101.683 409.028 101.298C409.279 100.913 409.638 100.612 410.059 100.433C410.481 100.253 410.945 100.204 411.395 100.292C411.844 100.379 412.257 100.598 412.582 100.922C412.907 101.247 413.129 101.661 413.22 102.112C413.311 102.563 413.266 103.032 413.092 103.458C412.918 103.884 412.622 104.248 412.242 104.504C411.862 104.76 411.415 104.897 410.958 104.897C410.349 104.897 409.765 104.656 409.333 104.224C408.901 103.793 408.655 103.208 408.649 102.595Z" fill="#CAB7FF"/>
</g>
<defs>
<filter id="filter0_d" x="0" y="76.502" width="465.041" height="315.641" filterUnits="userSpaceOnUse" color-interpolation-filters="sRGB">
<feFlood flood-opacity="0" result="BackgroundImageFix"/>
<feColorMatrix in="SourceAlpha" type="matrix" values="0 0 0 0 0 0 0 0 0 0 0 0 0 0 0 0 0 0 127 0" result="hardAlpha"/>
<feOffset dy="15"/>
<feGaussianBlur stdDeviation="5"/>
<feComposite in2="hardAlpha" operator="out"/>
<feColorMatrix type="matrix" values="0 0 0 0 0 0 0 0 0 0 0 0 0 0 0 0 0 0 0.15 0"/>
<feBlend mode="normal" in2="BackgroundImageFix" result="effect1_dropShadow"/>
<feBlend mode="normal" in="SourceGraphic" in2="effect1_dropShadow" result="shape"/>
</filter>
<filter id="filter1_d" x="287.343" y="0.936523" width="231.162" height="196.517" filterUnits="userSpaceOnUse" color-interpolation-filters="sRGB">
<feFlood flood-opacity="0" result="BackgroundImageFix"/>
<feColorMatrix in="SourceAlpha" type="matrix" values="0 0 0 0 0 0 0 0 0 0 0 0 0 0 0 0 0 0 127 0" result="hardAlpha"/>
<feOffset dy="10"/>
<feGaussianBlur stdDeviation="7.5"/>
<feComposite in2="hardAlpha" operator="out"/>
<feColorMatrix type="matrix" values="0 0 0 0 0 0 0 0 0 0 0 0 0 0 0 0 0 0 0.15 0"/>
<feBlend mode="normal" in2="BackgroundImageFix" result="effect1_dropShadow"/>
<feBlend mode="normal" in="SourceGraphic" in2="effect1_dropShadow" result="shape"/>
</filter>
<clipPath id="clip0">
<rect width="153.106" height="139.696" fill="white" transform="translate(326.929 19.3467)"/>
</clipPath>
</defs>
</svg>